<svg width="15" height="16" viewBox="0 0 15 16" fill="none" xmlns="http://www.w3.org/2000/svg">
    <path
        d="M8.03617 0.768053C7.00373 0.692898 5.96721 0.840922 4.99707 1.20206C4.02694 1.56321 3.14593 2.129 2.41396 2.86098C1.68198 3.59296 1.11618 4.47396 0.755043 5.44409C0.393901 6.41423 0.245876 7.45075 0.321032 8.48319C0.580849 12.3011 3.91517 15.1807 7.74027 15.1807H10.4034C10.8003 15.1807 11.1251 14.8559 11.1251 14.459C11.1251 14.062 10.8003 13.7373 10.4034 13.7373H7.7547C5.0627 13.7373 2.59443 11.9907 1.92324 9.38533C0.847884 5.19939 4.74515 1.29491 8.9311 2.37748C11.5437 3.04146 13.2903 5.50972 13.2903 8.20172V8.99561C13.2903 9.56576 12.7778 10.1287 12.2077 10.1287C11.6375 10.1287 11.1251 9.56576 11.1251 8.99561V8.09346C11.1251 6.28196 9.84046 4.65088 8.0506 4.39828C7.48114 4.3136 6.89969 4.36619 6.35465 4.55166C5.80962 4.73713 5.31678 5.05011 4.91716 5.46456C4.51754 5.879 4.22271 6.38291 4.05721 6.93434C3.89171 7.48576 3.86034 8.06875 3.96569 8.63475C4.09227 9.31675 4.41289 9.94777 4.88909 10.4521C5.36529 10.9565 5.97686 11.3128 6.65048 11.4783C7.97843 11.7886 9.24143 11.3628 10.0714 10.5184C10.7137 11.3989 11.9984 11.8608 13.1748 11.3917C14.1419 11.0092 14.7337 10.0204 14.7337 8.98117V8.1945C14.7337 4.3622 11.854 1.02787 8.03617 0.768053ZM7.51653 10.1287C6.31849 10.1287 5.35139 9.1616 5.35139 7.96355C5.35139 6.76551 6.31849 5.79841 7.51653 5.79841C8.71458 5.79841 9.68168 6.76551 9.68168 7.96355C9.68168 9.1616 8.71458 10.1287 7.51653 10.1287Z"
        fill="#FFF" />
</svg>