<svg width="27" height="23" viewBox="0 0 27 23" fill="none" xmlns="http://www.w3.org/2000/svg">
    <path fill-rule="evenodd" clip-rule="evenodd"
        d="M0.159912 8.1948C0.159912 7.77615 0.335427 7.37464 0.647847 7.07861C0.960266 6.78257 1.384 6.61626 1.82582 6.61626H18.9981C19.4399 6.61626 19.8636 6.78257 20.176 7.07861C20.4885 7.37464 20.664 7.77615 20.664 8.1948C20.664 8.61345 20.4885 9.01496 20.176 9.31099C19.8636 9.60703 19.4399 9.77333 18.9981 9.77333H1.82582C1.384 9.77333 0.960266 9.60703 0.647847 9.31099C0.335427 9.01496 0.159912 8.61345 0.159912 8.1948ZM0.159912 1.88066C0.159912 1.46201 0.335427 1.0605 0.647847 0.764466C0.960266 0.468433 1.384 0.302124 1.82582 0.302124H25.1486C25.5904 0.302124 26.0142 0.468433 26.3266 0.764466C26.639 1.0605 26.8145 1.46201 26.8145 1.88066C26.8145 2.29931 26.639 2.70082 26.3266 2.99685C26.0142 3.29288 25.5904 3.45919 25.1486 3.45919H1.82582C1.384 3.45919 0.960266 3.29288 0.647847 2.99685C0.335427 2.70082 0.159912 2.29931 0.159912 1.88066ZM0.159912 14.5089C0.159912 14.0903 0.335427 13.6888 0.647847 13.3927C0.960266 13.0967 1.384 12.9304 1.82582 12.9304H25.1486C25.5904 12.9304 26.0142 13.0967 26.3266 13.3927C26.639 13.6888 26.8145 14.0903 26.8145 14.5089C26.8145 14.9276 26.639 15.3291 26.3266 15.6251C26.0142 15.9212 25.5904 16.0875 25.1486 16.0875H1.82582C1.384 16.0875 0.960266 15.9212 0.647847 15.6251C0.335427 15.3291 0.159912 14.9276 0.159912 14.5089ZM0.159912 20.8231C0.159912 20.4044 0.335427 20.0029 0.647847 19.7069C0.960266 19.4109 1.384 19.2445 1.82582 19.2445H18.9981C19.4399 19.2445 19.8636 19.4109 20.176 19.7069C20.4885 20.0029 20.664 20.4044 20.664 20.8231C20.664 21.2417 20.4885 21.6432 20.176 21.9393C19.8636 22.2353 19.4399 22.4016 18.9981 22.4016H1.82582C1.384 22.4016 0.960266 22.2353 0.647847 21.9393C0.335427 21.6432 0.159912 21.2417 0.159912 20.8231Z"
        fill="#FFF" />
</svg>