<svg width="37" height="32" viewBox="0 0 37 32" fill="none" xmlns="http://www.w3.org/2000/svg">
    <path
        d="M19.052 0.830407C18.8392 0.668022 18.577 0.579834 18.3072 0.579834C18.0373 0.579834 17.7751 0.668022 17.5623 0.830407L0.325806 13.9829L1.81676 15.8281L3.92424 14.22V28.7506C3.9255 29.3728 4.17866 29.9692 4.62827 30.4092C5.07789 30.8492 5.68734 31.0969 6.32319 31.0982H30.3127C30.9486 31.0969 31.558 30.8492 32.0076 30.4092C32.4573 29.9692 32.7104 29.3728 32.7117 28.7506V14.2306L34.8192 15.8387L36.3101 13.9935L19.052 0.830407ZM20.7169 28.7506H15.919V19.3601H20.7169V28.7506ZM23.1159 28.7506V19.3601C23.1152 18.7377 22.8623 18.1409 22.4125 17.7008C21.9628 17.2607 21.353 17.0131 20.7169 17.0125H15.919C15.283 17.0131 14.6731 17.2607 14.2234 17.7008C13.7736 18.1409 13.5207 18.7377 13.5201 19.3601V28.7506H6.32319V12.3901L18.318 3.2461L30.3127 12.4018V28.7506H23.1159Z"
        fill="#FFF" />
</svg>