<svg width="22" height="22" viewBox="0 0 22 22" fill="none" xmlns="http://www.w3.org/2000/svg">
    <path
        d="M10.5164 12.3948C9.86638 12.3948 9.23099 12.202 8.69055 11.8409C8.15011 11.4798 7.72888 10.9666 7.48014 10.366C7.2314 9.76554 7.16632 9.10476 7.29313 8.46726C7.41993 7.82977 7.73293 7.24419 8.19254 6.78458C8.65215 6.32497 9.23773 6.01198 9.87522 5.88517C10.5127 5.75836 11.1735 5.82345 11.774 6.07218C12.3745 6.32092 12.8878 6.74215 13.2489 7.28259C13.61 7.82303 13.8027 8.45842 13.8027 9.10841C13.8017 9.97969 13.4551 10.815 12.839 11.4311C12.2229 12.0472 11.3876 12.3937 10.5164 12.3948ZM10.5164 7.13658C10.1264 7.13658 9.74514 7.25222 9.42087 7.46889C9.09661 7.68556 8.84387 7.99351 8.69463 8.35382C8.54539 8.71412 8.50634 9.11059 8.58242 9.49309C8.65851 9.87559 8.84631 10.2269 9.12207 10.5027C9.39784 10.7785 9.74918 10.9663 10.1317 11.0423C10.5142 11.1184 10.9106 11.0794 11.271 10.9301C11.6313 10.7809 11.9392 10.5282 12.1559 10.2039C12.3725 9.87963 12.4882 9.4984 12.4882 9.10841C12.4877 8.5856 12.2798 8.08436 11.9101 7.71469C11.5404 7.34501 11.0392 7.1371 10.5164 7.13658Z"
        fill="#FFF" />
    <path
        d="M10.5164 20.2822L4.97164 13.7429C4.8946 13.6447 4.81835 13.5459 4.74291 13.4465C3.79576 12.1988 3.28409 10.6749 3.28638 9.10846C3.28638 7.19093 4.04812 5.35194 5.40401 3.99605C6.75991 2.64015 8.5989 1.87842 10.5164 1.87842C12.434 1.87842 14.2729 2.64015 15.6288 3.99605C16.9847 5.35194 17.7465 7.19093 17.7465 9.10846C17.7488 10.6742 17.2373 12.1974 16.2906 13.4445L16.2899 13.4465C16.2899 13.4465 16.0928 13.7055 16.0632 13.7403L10.5164 20.2822ZM5.79192 12.6545C5.79324 12.6545 5.94573 12.8569 5.98056 12.9003L10.5164 18.2499L15.0582 12.8931C15.0871 12.8569 15.2409 12.6532 15.2416 12.6525C16.0153 11.6331 16.4334 10.3882 16.4319 9.10846C16.4319 7.53957 15.8087 6.03495 14.6993 4.92558C13.5899 3.81621 12.0853 3.19297 10.5164 3.19297C8.94754 3.19297 7.44291 3.81621 6.33354 4.92558C5.22417 6.03495 4.60094 7.53957 4.60094 9.10846C4.59956 10.389 5.0175 11.6346 5.79192 12.6545Z"
        fill="#FFF" />
</svg>