<svg width="18" height="18" viewBox="0 0 18 18" fill="none" xmlns="http://www.w3.org/2000/svg">
    <path
        d="M4.68838 1.02871C5.76268 1.8121 6.57585 2.91277 7.26823 3.92413L7.81091 4.72198C7.97943 4.96828 8.05654 5.26575 8.02889 5.5629C8.00124 5.86005 7.87058 6.13819 7.65951 6.34917L6.5061 7.50257L6.62774 7.76115C6.92544 8.36422 7.4392 9.23268 8.21239 10.0067C8.74629 10.5326 9.34818 10.9846 10.002 11.3507L10.3142 11.5182L10.5924 11.656L10.7165 11.713L11.8691 10.5596C12.0809 10.3481 12.3603 10.2176 12.6584 10.191C12.9566 10.1645 13.2546 10.2434 13.5005 10.4142L14.363 11.0121C15.3429 11.7011 16.3662 12.4862 17.1615 13.5052C17.299 13.682 17.3864 13.8926 17.4147 14.1148C17.443 14.337 17.411 14.5627 17.3222 14.7683C16.6103 16.4295 14.8087 17.8441 12.9349 17.7743L12.6797 17.7607L12.4815 17.7437L12.2621 17.7182L12.023 17.6859L11.7636 17.6425L11.4863 17.5881L11.192 17.5226L10.8807 17.4426L10.5532 17.349L10.2113 17.2385C8.64109 16.706 6.64815 15.6598 4.60332 13.6149C2.55935 11.571 1.51312 9.57802 0.980648 8.00782L0.870071 7.66589L0.776505 7.33841L0.69655 7.02709L0.630203 6.73279C0.61104 6.64061 0.593176 6.54817 0.576616 6.45549L0.534086 6.19606L0.500062 5.95705L0.475395 5.73759L0.458383 5.5394L0.444774 5.28423C0.375876 3.41632 1.80572 1.60201 3.45928 0.893465C3.6583 0.807526 3.87624 0.774807 4.09172 0.798518C4.3072 0.822228 4.51281 0.901553 4.68838 1.02871ZM3.89988 2.56658C2.98805 3.04291 2.10513 4.13167 2.14511 5.22128L2.16212 5.50028L2.18083 5.67465L2.2055 5.87028L2.23953 6.08548L2.28291 6.3211L2.33819 6.57458L2.40624 6.84677L2.4879 7.13512L2.58487 7.43963C2.62059 7.5434 2.65802 7.64973 2.69885 7.7586L2.82984 8.09203L2.97954 8.43822C3.51371 9.61374 4.38472 10.99 5.80776 12.4122C7.22996 13.8344 8.60622 14.7062 9.78174 15.2404L10.1279 15.3901L10.4614 15.5211C10.5702 15.5619 10.6766 15.5994 10.7803 15.6351L11.0848 15.7321L11.374 15.8137L11.6454 15.8818L11.8989 15.9371L12.1345 15.9804L12.3505 16.0145L12.5462 16.04L12.7197 16.057L12.9987 16.074C14.0738 16.114 15.1711 15.2362 15.6457 14.3362C15.0401 13.626 14.2882 13.0433 13.4588 12.4564L12.8226 12.0133L12.661 12.1825L12.3157 12.5593L12.1328 12.7516C11.6343 13.2594 11.0525 13.6906 10.355 13.4091L10.1628 13.3283L9.92804 13.2228L9.79705 13.1607L9.50955 13.017L9.19398 12.8468C8.39538 12.4024 7.66084 11.8516 7.0105 11.2095C6.36837 10.5591 5.81754 9.82458 5.37311 9.02598L5.20299 8.71127L5.05839 8.42291L4.89167 8.05716L4.81002 7.86322C4.54548 7.20912 4.90954 6.65708 5.37481 6.17905L5.56534 5.99192L6.03912 5.55556L6.20924 5.39395L5.80691 4.80449C5.20895 3.93689 4.62459 3.15434 3.89903 2.56573L3.89988 2.56658ZM11.6088 4.08659L11.7075 4.09765C12.3266 4.20686 12.8953 4.50929 13.332 4.96158C13.7687 5.41387 14.051 5.9928 14.1385 6.6154C14.1696 6.83076 14.1171 7.04987 13.9917 7.22766C13.8662 7.40546 13.6774 7.52841 13.464 7.57124C13.2507 7.61406 13.0291 7.57349 12.8447 7.45787C12.6604 7.34226 12.5274 7.16039 12.473 6.94969L12.4534 6.85187C12.4192 6.60783 12.3151 6.37893 12.1536 6.19282C11.992 6.0067 11.7801 5.87134 11.5433 5.80309L11.4115 5.77332C11.1979 5.73546 11.0068 5.61743 10.8774 5.44338C10.7479 5.26932 10.6899 5.05238 10.7151 4.83694C10.7403 4.62149 10.8469 4.42382 11.013 4.28434C11.1791 4.14486 11.3923 4.07412 11.6088 4.08659ZM11.6148 1.50079C12.9683 1.50079 14.2664 2.03848 15.2235 2.99559C16.1806 3.95269 16.7183 5.2508 16.7183 6.60435C16.7181 6.82115 16.6351 7.02967 16.4862 7.18732C16.3374 7.34496 16.134 7.43983 15.9176 7.45253C15.7012 7.46524 15.488 7.39482 15.3218 7.25568C15.1555 7.11653 15.0487 6.91915 15.0231 6.70387L15.0171 6.60435C15.0175 5.7405 14.689 4.90891 14.0985 4.27842C13.508 3.64793 12.6996 3.26581 11.8376 3.20963L11.6148 3.20197C11.3892 3.20197 11.1728 3.11236 11.0133 2.95284C10.8538 2.79332 10.7642 2.57697 10.7642 2.35138C10.7642 2.12579 10.8538 1.90944 11.0133 1.74992C11.1728 1.5904 11.3892 1.50079 11.6148 1.50079Z"
        fill="#FFF" />
</svg>