<svg width="27" height="20" viewBox="0 0 27 20" fill="none" xmlns="http://www.w3.org/2000/svg">
<path d="M10.629 16.5261C10.7768 16.663 10.8955 16.8282 10.9781 17.0119C11.0607 17.1957 11.1054 17.3942 11.1096 17.5956C11.1138 17.797 11.0774 17.9971 11.0025 18.1841C10.9277 18.3712 10.8159 18.5412 10.6739 18.6841C10.5319 18.827 10.3626 18.9398 10.1761 19.0158C9.98956 19.0919 9.78962 19.1295 9.5882 19.1266C9.38679 19.1237 9.18802 19.0803 9.00376 18.9989C8.8195 18.9175 8.65353 18.7998 8.51574 18.6528L0.490434 10.6782C0.208643 10.3979 0.0496576 10.0171 0.0483983 9.61961C0.047139 9.22211 0.203709 8.84037 0.483718 8.55823L8.45833 0.532924C8.59519 0.385116 8.76042 0.266388 8.94415 0.183822C9.12789 0.101256 9.32638 0.0565441 9.52777 0.0523526C9.72917 0.0481612 9.92934 0.0845756 10.1164 0.159425C10.3034 0.234274 10.4734 0.346027 10.6163 0.488012C10.7592 0.629997 10.872 0.799309 10.948 0.985846C11.0241 1.17238 11.0617 1.37232 11.0588 1.57374C11.0559 1.77515 11.0125 1.97392 10.9311 2.15818C10.8497 2.34243 10.732 2.50841 10.585 2.6462L5.1623 8.10341L24.5422 8.04201C24.94 8.04075 25.3221 8.19757 25.6043 8.47799C25.8864 8.7584 26.0457 9.13943 26.0469 9.53725C26.0482 9.93507 25.8914 10.3171 25.611 10.5993C25.3306 10.8815 24.9495 11.0407 24.5517 11.042L5.1718 11.1034L10.629 16.5261Z" fill="white"/>
<path d="M10.629 16.5261C10.7768 16.663 10.8955 16.8282 10.9781 17.0119C11.0607 17.1957 11.1054 17.3942 11.1096 17.5956C11.1138 17.797 11.0774 17.9971 11.0025 18.1841C10.9277 18.3712 10.8159 18.5412 10.6739 18.6841C10.5319 18.827 10.3626 18.9398 10.1761 19.0158C9.98956 19.0919 9.78962 19.1295 9.5882 19.1266C9.38679 19.1237 9.18802 19.0803 9.00376 18.9989C8.8195 18.9175 8.65353 18.7998 8.51574 18.6528L0.490434 10.6782C0.208643 10.3979 0.0496576 10.0171 0.0483983 9.61961C0.047139 9.22211 0.203709 8.84037 0.483718 8.55823L8.45833 0.532924C8.59519 0.385116 8.76042 0.266388 8.94415 0.183822C9.12789 0.101256 9.32638 0.0565441 9.52777 0.0523526C9.72917 0.0481612 9.92934 0.0845756 10.1164 0.159425C10.3034 0.234274 10.4734 0.346027 10.6163 0.488012C10.7592 0.629997 10.872 0.799309 10.948 0.985846C11.0241 1.17238 11.0617 1.37232 11.0588 1.57374C11.0559 1.77515 11.0125 1.97392 10.9311 2.15818C10.8497 2.34243 10.732 2.50841 10.585 2.6462L5.1623 8.10341L24.5422 8.04201C24.94 8.04075 25.3221 8.19757 25.6043 8.47799C25.8864 8.7584 26.0457 9.13943 26.0469 9.53725C26.0482 9.93507 25.8914 10.3171 25.611 10.5993C25.3306 10.8815 24.9495 11.0407 24.5517 11.042L5.1718 11.1034L10.629 16.5261Z" fill="white"/>
</svg>
